# xmcd
#
# Track frame offsets:
# 150
# 22677
# 49971
# 67771
# 83736
# 97430
# 124197
# 141327
# 166509
# 187690
# 202911
# 220356
# 241326
#
# Disc length: 3484 seconds
#
# Revision: 0
# Processed by: cddbd v1.5.2PL0 Copyright (c) Steve Scherf et al.
# Submitted via: Audion 3.0.2 (http://www.panic.com/audion/)
#
DISCID=a90d9a0d
DTITLE=Nelson Machado - De Letra
DYEAR=1900
DGENRE=
TTITLE0=Ml motivos
TTITLE1=Estacoes
TTITLE2=Estrela
TTITLE3=Quen sabe,Sampa
TTITLE4=Liquidacao
TTITLE5=De Lua
TTITLE6=E Aì
TTITLE7=Estojo
TTITLE8=O Caos e o Amor
TTITLE9=Latomia
TTITLE10=Superman
TTITLE11=De Letra
TTITLE12=Desce de bananeira,Nenem
EXTD=
EXTT0=
EXTT1=
EXTT2=
EXTT3=
EXTT4=
EXTT5=
EXTT6=
EXTT7=
EXTT8=
EXTT9=
EXTT10=
EXTT11=
EXTT12=
PLAYORDER=
